G04 #@! TF.FileFunction,Soldermask,Top*
%FSLAX46Y46*%
G04 Gerber Fmt 4.6, Leading zero omitted, Abs format (unit mm)*
G04 Created by KiCad (PCBNEW (2015-03-05 BZR 5481)-product) date Monday, 13 July 2015 02:26:57 pm*
%MOMM*%
G01*
G04 APERTURE LIST*
%ADD10C,0.100000*%
%ADD11R,2.032000X1.727200*%
%ADD12O,2.032000X1.727200*%
%ADD13R,1.727200X2.032000*%
%ADD14O,1.727200X2.032000*%
%ADD15R,1.060000X0.650000*%
%ADD16O,1.100000X2.400000*%
%ADD17R,2.400000X1.100000*%
%ADD18O,2.400000X1.100000*%
%ADD19R,3.657600X2.032000*%
%ADD20R,1.016000X2.032000*%
%ADD21R,0.400000X1.350000*%
%ADD22O,1.250000X0.950000*%
%ADD23O,1.000000X1.550000*%
%ADD24R,2.032000X2.032000*%
%ADD25O,2.032000X2.032000*%
%ADD26R,1.198880X1.198880*%
%ADD27C,4.000000*%
%ADD28R,1.000000X1.250000*%
%ADD29R,0.700000X1.300000*%
%ADD30R,1.524000X2.540000*%
G04 APERTURE END LIST*
D10*
D11*
X52705000Y-29210000D03*
D12*
X52705000Y-31750000D03*
X52705000Y-34290000D03*
X52705000Y-36830000D03*
X52705000Y-39370000D03*
X52705000Y-41910000D03*
X52705000Y-44450000D03*
X52705000Y-46990000D03*
X52705000Y-49530000D03*
X52705000Y-52070000D03*
X52705000Y-54610000D03*
D11*
X22860000Y-54610000D03*
D12*
X22860000Y-52070000D03*
X22860000Y-49530000D03*
X22860000Y-46990000D03*
X22860000Y-44450000D03*
X22860000Y-41910000D03*
X22860000Y-39370000D03*
X22860000Y-36830000D03*
X22860000Y-34290000D03*
X22860000Y-31750000D03*
X22860000Y-29210000D03*
D13*
X46990000Y-54610000D03*
D14*
X44450000Y-54610000D03*
X41910000Y-54610000D03*
X39370000Y-54610000D03*
X36830000Y-54610000D03*
X34290000Y-54610000D03*
X31750000Y-54610000D03*
X29210000Y-54610000D03*
D13*
X52705000Y-24130000D03*
D14*
X55245000Y-24130000D03*
X57785000Y-24130000D03*
D15*
X66210000Y-30800000D03*
X66210000Y-31750000D03*
X66210000Y-32700000D03*
X68410000Y-32700000D03*
X68410000Y-30800000D03*
X68410000Y-31750000D03*
D16*
X32835000Y-38610000D03*
X34835000Y-38610000D03*
X36835000Y-38610000D03*
X38835000Y-38610000D03*
X40835000Y-38610000D03*
X42835000Y-38610000D03*
D17*
X29845000Y-22860000D03*
D18*
X29845000Y-24860000D03*
X29845000Y-26860000D03*
X29845000Y-28860000D03*
X29845000Y-30860000D03*
X29845000Y-32860000D03*
X29845000Y-34860000D03*
X29845000Y-36860000D03*
X45845000Y-36860000D03*
X45845000Y-34860000D03*
X45845000Y-32860000D03*
X45845000Y-30860000D03*
X45845000Y-28860000D03*
X45845000Y-26860000D03*
X45845000Y-24860000D03*
X45845000Y-22860000D03*
D19*
X87630000Y-27813000D03*
D20*
X87630000Y-34417000D03*
X89916000Y-34417000D03*
X85344000Y-34417000D03*
D13*
X77470000Y-60960000D03*
D14*
X80010000Y-60960000D03*
X82550000Y-60960000D03*
X85090000Y-60960000D03*
D15*
X77005000Y-32070000D03*
X77005000Y-33020000D03*
X77005000Y-33970000D03*
X79205000Y-33970000D03*
X79205000Y-32070000D03*
D21*
X76865900Y-26327540D03*
X76215900Y-26327540D03*
X75565900Y-26327540D03*
X74915900Y-26327540D03*
X74265900Y-26327540D03*
D22*
X78065900Y-26327540D03*
X73065900Y-26327540D03*
D23*
X79065900Y-23627540D03*
X72065900Y-23627540D03*
D24*
X63500000Y-24130000D03*
D25*
X66040000Y-24130000D03*
D26*
X74074020Y-32385000D03*
X71975980Y-32385000D03*
D13*
X27305000Y-60960000D03*
D14*
X29845000Y-60960000D03*
X32385000Y-60960000D03*
X34925000Y-60960000D03*
X37465000Y-60960000D03*
X40005000Y-60960000D03*
D27*
X20955000Y-23495000D03*
X93345000Y-23495000D03*
X93345000Y-61595000D03*
X20955000Y-61595000D03*
D28*
X66945000Y-47625000D03*
X68945000Y-47625000D03*
X66945000Y-52070000D03*
X68945000Y-52070000D03*
X86630000Y-48895000D03*
X88630000Y-48895000D03*
X66945000Y-43180000D03*
X68945000Y-43180000D03*
X86630000Y-44450000D03*
X88630000Y-44450000D03*
X86630000Y-40005000D03*
X88630000Y-40005000D03*
D29*
X78425000Y-54610000D03*
X80325000Y-54610000D03*
X66995000Y-38100000D03*
X68895000Y-38100000D03*
X78425000Y-51435000D03*
X80325000Y-51435000D03*
X78425000Y-45085000D03*
X80325000Y-45085000D03*
X78425000Y-48260000D03*
X80325000Y-48260000D03*
X78425000Y-38735000D03*
X80325000Y-38735000D03*
X78425000Y-41910000D03*
X80325000Y-41910000D03*
D30*
X66165000Y-60960000D03*
X59565000Y-60960000D03*
M02*
