G04 #@! TF.FileFunction,Legend,Bot*
%FSLAX46Y46*%
G04 Gerber Fmt 4.6, Leading zero omitted, Abs format (unit mm)*
G04 Created by KiCad (PCBNEW (2015-03-05 BZR 5481)-product) date Monday, 13 July 2015 02:26:57 pm*
%MOMM*%
G01*
G04 APERTURE LIST*
%ADD10C,0.100000*%
%ADD11C,0.300000*%
G04 APERTURE END LIST*
D10*
D11*
X94892857Y-47948571D02*
X94892857Y-46448571D01*
X94321429Y-46448571D01*
X94178571Y-46520000D01*
X94107143Y-46591429D01*
X94035714Y-46734286D01*
X94035714Y-46948571D01*
X94107143Y-47091429D01*
X94178571Y-47162857D01*
X94321429Y-47234286D01*
X94892857Y-47234286D01*
X93392857Y-47948571D02*
X93392857Y-46948571D01*
X93392857Y-47234286D02*
X93321429Y-47091429D01*
X93250000Y-47020000D01*
X93107143Y-46948571D01*
X92964286Y-46948571D01*
X92250000Y-47948571D02*
X92392858Y-47877143D01*
X92464286Y-47805714D01*
X92535715Y-47662857D01*
X92535715Y-47234286D01*
X92464286Y-47091429D01*
X92392858Y-47020000D01*
X92250000Y-46948571D01*
X92035715Y-46948571D01*
X91892858Y-47020000D01*
X91821429Y-47091429D01*
X91750000Y-47234286D01*
X91750000Y-47662857D01*
X91821429Y-47805714D01*
X91892858Y-47877143D01*
X92035715Y-47948571D01*
X92250000Y-47948571D01*
X91107143Y-46948571D02*
X91107143Y-48234286D01*
X91178572Y-48377143D01*
X91321429Y-48448571D01*
X91392857Y-48448571D01*
X91107143Y-46448571D02*
X91178572Y-46520000D01*
X91107143Y-46591429D01*
X91035715Y-46520000D01*
X91107143Y-46448571D01*
X91107143Y-46591429D01*
X89821429Y-47877143D02*
X89964286Y-47948571D01*
X90250000Y-47948571D01*
X90392857Y-47877143D01*
X90464286Y-47734286D01*
X90464286Y-47162857D01*
X90392857Y-47020000D01*
X90250000Y-46948571D01*
X89964286Y-46948571D01*
X89821429Y-47020000D01*
X89750000Y-47162857D01*
X89750000Y-47305714D01*
X90464286Y-47448571D01*
X88464286Y-47877143D02*
X88607143Y-47948571D01*
X88892857Y-47948571D01*
X89035715Y-47877143D01*
X89107143Y-47805714D01*
X89178572Y-47662857D01*
X89178572Y-47234286D01*
X89107143Y-47091429D01*
X89035715Y-47020000D01*
X88892857Y-46948571D01*
X88607143Y-46948571D01*
X88464286Y-47020000D01*
X88035715Y-46948571D02*
X87464286Y-46948571D01*
X87821429Y-46448571D02*
X87821429Y-47734286D01*
X87750001Y-47877143D01*
X87607143Y-47948571D01*
X87464286Y-47948571D01*
X86964286Y-47805714D02*
X86892858Y-47877143D01*
X86964286Y-47948571D01*
X87035715Y-47877143D01*
X86964286Y-47805714D01*
X86964286Y-47948571D01*
X86964286Y-47020000D02*
X86892858Y-47091429D01*
X86964286Y-47162857D01*
X87035715Y-47091429D01*
X86964286Y-47020000D01*
X86964286Y-47162857D01*
X85107143Y-47948571D02*
X85107143Y-46448571D01*
X85107143Y-47020000D02*
X84964286Y-46948571D01*
X84678572Y-46948571D01*
X84535715Y-47020000D01*
X84464286Y-47091429D01*
X84392857Y-47234286D01*
X84392857Y-47662857D01*
X84464286Y-47805714D01*
X84535715Y-47877143D01*
X84678572Y-47948571D01*
X84964286Y-47948571D01*
X85107143Y-47877143D01*
X83107143Y-47948571D02*
X83107143Y-47162857D01*
X83178572Y-47020000D01*
X83321429Y-46948571D01*
X83607143Y-46948571D01*
X83750000Y-47020000D01*
X83107143Y-47877143D02*
X83250000Y-47948571D01*
X83607143Y-47948571D01*
X83750000Y-47877143D01*
X83821429Y-47734286D01*
X83821429Y-47591429D01*
X83750000Y-47448571D01*
X83607143Y-47377143D01*
X83250000Y-47377143D01*
X83107143Y-47305714D01*
X82464286Y-47877143D02*
X82321429Y-47948571D01*
X82035714Y-47948571D01*
X81892857Y-47877143D01*
X81821429Y-47734286D01*
X81821429Y-47662857D01*
X81892857Y-47520000D01*
X82035714Y-47448571D01*
X82250000Y-47448571D01*
X82392857Y-47377143D01*
X82464286Y-47234286D01*
X82464286Y-47162857D01*
X82392857Y-47020000D01*
X82250000Y-46948571D01*
X82035714Y-46948571D01*
X81892857Y-47020000D01*
X81178571Y-47948571D02*
X81178571Y-46948571D01*
X81178571Y-46448571D02*
X81250000Y-46520000D01*
X81178571Y-46591429D01*
X81107143Y-46520000D01*
X81178571Y-46448571D01*
X81178571Y-46591429D01*
X79821428Y-47877143D02*
X79964285Y-47948571D01*
X80249999Y-47948571D01*
X80392857Y-47877143D01*
X80464285Y-47805714D01*
X80535714Y-47662857D01*
X80535714Y-47234286D01*
X80464285Y-47091429D01*
X80392857Y-47020000D01*
X80249999Y-46948571D01*
X79964285Y-46948571D01*
X79821428Y-47020000D01*
X79535714Y-48091429D02*
X78392857Y-48091429D01*
X77464286Y-47877143D02*
X77607143Y-47948571D01*
X77892857Y-47948571D01*
X78035714Y-47877143D01*
X78107143Y-47734286D01*
X78107143Y-47162857D01*
X78035714Y-47020000D01*
X77892857Y-46948571D01*
X77607143Y-46948571D01*
X77464286Y-47020000D01*
X77392857Y-47162857D01*
X77392857Y-47305714D01*
X78107143Y-47448571D01*
X76821429Y-47877143D02*
X76678572Y-47948571D01*
X76392857Y-47948571D01*
X76250000Y-47877143D01*
X76178572Y-47734286D01*
X76178572Y-47662857D01*
X76250000Y-47520000D01*
X76392857Y-47448571D01*
X76607143Y-47448571D01*
X76750000Y-47377143D01*
X76821429Y-47234286D01*
X76821429Y-47162857D01*
X76750000Y-47020000D01*
X76607143Y-46948571D01*
X76392857Y-46948571D01*
X76250000Y-47020000D01*
X75535714Y-46948571D02*
X75535714Y-48448571D01*
X75535714Y-47020000D02*
X75392857Y-46948571D01*
X75107143Y-46948571D01*
X74964286Y-47020000D01*
X74892857Y-47091429D01*
X74821428Y-47234286D01*
X74821428Y-47662857D01*
X74892857Y-47805714D01*
X74964286Y-47877143D01*
X75107143Y-47948571D01*
X75392857Y-47948571D01*
X75535714Y-47877143D01*
X74535714Y-48091429D02*
X73392857Y-48091429D01*
X73035714Y-47948571D02*
X73035714Y-46448571D01*
X73035714Y-47020000D02*
X72892857Y-46948571D01*
X72607143Y-46948571D01*
X72464286Y-47020000D01*
X72392857Y-47091429D01*
X72321428Y-47234286D01*
X72321428Y-47662857D01*
X72392857Y-47805714D01*
X72464286Y-47877143D01*
X72607143Y-47948571D01*
X72892857Y-47948571D01*
X73035714Y-47877143D01*
X71464285Y-47948571D02*
X71607143Y-47877143D01*
X71678571Y-47805714D01*
X71750000Y-47662857D01*
X71750000Y-47234286D01*
X71678571Y-47091429D01*
X71607143Y-47020000D01*
X71464285Y-46948571D01*
X71250000Y-46948571D01*
X71107143Y-47020000D01*
X71035714Y-47091429D01*
X70964285Y-47234286D01*
X70964285Y-47662857D01*
X71035714Y-47805714D01*
X71107143Y-47877143D01*
X71250000Y-47948571D01*
X71464285Y-47948571D01*
X69678571Y-47948571D02*
X69678571Y-47162857D01*
X69750000Y-47020000D01*
X69892857Y-46948571D01*
X70178571Y-46948571D01*
X70321428Y-47020000D01*
X69678571Y-47877143D02*
X69821428Y-47948571D01*
X70178571Y-47948571D01*
X70321428Y-47877143D01*
X70392857Y-47734286D01*
X70392857Y-47591429D01*
X70321428Y-47448571D01*
X70178571Y-47377143D01*
X69821428Y-47377143D01*
X69678571Y-47305714D01*
X68964285Y-47948571D02*
X68964285Y-46948571D01*
X68964285Y-47234286D02*
X68892857Y-47091429D01*
X68821428Y-47020000D01*
X68678571Y-46948571D01*
X68535714Y-46948571D01*
X67392857Y-47948571D02*
X67392857Y-46448571D01*
X67392857Y-47877143D02*
X67535714Y-47948571D01*
X67821428Y-47948571D01*
X67964286Y-47877143D01*
X68035714Y-47805714D01*
X68107143Y-47662857D01*
X68107143Y-47234286D01*
X68035714Y-47091429D01*
X67964286Y-47020000D01*
X67821428Y-46948571D01*
X67535714Y-46948571D01*
X67392857Y-47020000D01*
X94892857Y-50348571D02*
X94892857Y-48848571D01*
X94535714Y-48848571D01*
X94321429Y-48920000D01*
X94178571Y-49062857D01*
X94107143Y-49205714D01*
X94035714Y-49491429D01*
X94035714Y-49705714D01*
X94107143Y-49991429D01*
X94178571Y-50134286D01*
X94321429Y-50277143D01*
X94535714Y-50348571D01*
X94892857Y-50348571D01*
X92821429Y-50277143D02*
X92964286Y-50348571D01*
X93250000Y-50348571D01*
X93392857Y-50277143D01*
X93464286Y-50134286D01*
X93464286Y-49562857D01*
X93392857Y-49420000D01*
X93250000Y-49348571D01*
X92964286Y-49348571D01*
X92821429Y-49420000D01*
X92750000Y-49562857D01*
X92750000Y-49705714D01*
X93464286Y-49848571D01*
X92178572Y-50277143D02*
X92035715Y-50348571D01*
X91750000Y-50348571D01*
X91607143Y-50277143D01*
X91535715Y-50134286D01*
X91535715Y-50062857D01*
X91607143Y-49920000D01*
X91750000Y-49848571D01*
X91964286Y-49848571D01*
X92107143Y-49777143D01*
X92178572Y-49634286D01*
X92178572Y-49562857D01*
X92107143Y-49420000D01*
X91964286Y-49348571D01*
X91750000Y-49348571D01*
X91607143Y-49420000D01*
X90892857Y-50348571D02*
X90892857Y-49348571D01*
X90892857Y-48848571D02*
X90964286Y-48920000D01*
X90892857Y-48991429D01*
X90821429Y-48920000D01*
X90892857Y-48848571D01*
X90892857Y-48991429D01*
X89535714Y-49348571D02*
X89535714Y-50562857D01*
X89607143Y-50705714D01*
X89678571Y-50777143D01*
X89821428Y-50848571D01*
X90035714Y-50848571D01*
X90178571Y-50777143D01*
X89535714Y-50277143D02*
X89678571Y-50348571D01*
X89964285Y-50348571D01*
X90107143Y-50277143D01*
X90178571Y-50205714D01*
X90250000Y-50062857D01*
X90250000Y-49634286D01*
X90178571Y-49491429D01*
X90107143Y-49420000D01*
X89964285Y-49348571D01*
X89678571Y-49348571D01*
X89535714Y-49420000D01*
X88821428Y-49348571D02*
X88821428Y-50348571D01*
X88821428Y-49491429D02*
X88750000Y-49420000D01*
X88607142Y-49348571D01*
X88392857Y-49348571D01*
X88250000Y-49420000D01*
X88178571Y-49562857D01*
X88178571Y-50348571D01*
X86892857Y-50277143D02*
X87035714Y-50348571D01*
X87321428Y-50348571D01*
X87464285Y-50277143D01*
X87535714Y-50134286D01*
X87535714Y-49562857D01*
X87464285Y-49420000D01*
X87321428Y-49348571D01*
X87035714Y-49348571D01*
X86892857Y-49420000D01*
X86821428Y-49562857D01*
X86821428Y-49705714D01*
X87535714Y-49848571D01*
X86178571Y-50348571D02*
X86178571Y-49348571D01*
X86178571Y-49634286D02*
X86107143Y-49491429D01*
X86035714Y-49420000D01*
X85892857Y-49348571D01*
X85750000Y-49348571D01*
X85250000Y-50205714D02*
X85178572Y-50277143D01*
X85250000Y-50348571D01*
X85321429Y-50277143D01*
X85250000Y-50205714D01*
X85250000Y-50348571D01*
X85250000Y-49420000D02*
X85178572Y-49491429D01*
X85250000Y-49562857D01*
X85321429Y-49491429D01*
X85250000Y-49420000D01*
X85250000Y-49562857D01*
X83392857Y-50348571D02*
X83392857Y-48848571D01*
X82892857Y-49920000D01*
X82392857Y-48848571D01*
X82392857Y-50348571D01*
X81035714Y-50348571D02*
X81035714Y-49562857D01*
X81107143Y-49420000D01*
X81250000Y-49348571D01*
X81535714Y-49348571D01*
X81678571Y-49420000D01*
X81035714Y-50277143D02*
X81178571Y-50348571D01*
X81535714Y-50348571D01*
X81678571Y-50277143D01*
X81750000Y-50134286D01*
X81750000Y-49991429D01*
X81678571Y-49848571D01*
X81535714Y-49777143D01*
X81178571Y-49777143D01*
X81035714Y-49705714D01*
X80321428Y-50348571D02*
X80321428Y-49348571D01*
X80321428Y-49634286D02*
X80250000Y-49491429D01*
X80178571Y-49420000D01*
X80035714Y-49348571D01*
X79892857Y-49348571D01*
X79392857Y-50348571D02*
X79392857Y-48848571D01*
X79250000Y-49777143D02*
X78821429Y-50348571D01*
X78821429Y-49348571D02*
X79392857Y-49920000D01*
X77178571Y-48848571D02*
X76821428Y-50348571D01*
X76535714Y-49277143D01*
X76250000Y-50348571D01*
X75892857Y-48848571D01*
X75107142Y-50348571D02*
X75250000Y-50277143D01*
X75321428Y-50205714D01*
X75392857Y-50062857D01*
X75392857Y-49634286D01*
X75321428Y-49491429D01*
X75250000Y-49420000D01*
X75107142Y-49348571D01*
X74892857Y-49348571D01*
X74750000Y-49420000D01*
X74678571Y-49491429D01*
X74607142Y-49634286D01*
X74607142Y-50062857D01*
X74678571Y-50205714D01*
X74750000Y-50277143D01*
X74892857Y-50348571D01*
X75107142Y-50348571D01*
X73749999Y-50348571D02*
X73892857Y-50277143D01*
X73964285Y-50134286D01*
X73964285Y-48848571D01*
X73392857Y-49348571D02*
X72821428Y-49348571D01*
X73178571Y-50348571D02*
X73178571Y-49062857D01*
X73107143Y-48920000D01*
X72964285Y-48848571D01*
X72821428Y-48848571D01*
X71750000Y-50277143D02*
X71892857Y-50348571D01*
X72178571Y-50348571D01*
X72321428Y-50277143D01*
X72392857Y-50134286D01*
X72392857Y-49562857D01*
X72321428Y-49420000D01*
X72178571Y-49348571D01*
X71892857Y-49348571D01*
X71750000Y-49420000D01*
X71678571Y-49562857D01*
X71678571Y-49705714D01*
X72392857Y-49848571D01*
X94892857Y-51962857D02*
X94392857Y-51962857D01*
X94178571Y-52748571D02*
X94892857Y-52748571D01*
X94892857Y-51248571D01*
X94178571Y-51248571D01*
X93535714Y-52748571D02*
X93535714Y-51748571D01*
X93535714Y-51891429D02*
X93464286Y-51820000D01*
X93321428Y-51748571D01*
X93107143Y-51748571D01*
X92964286Y-51820000D01*
X92892857Y-51962857D01*
X92892857Y-52748571D01*
X92892857Y-51962857D02*
X92821428Y-51820000D01*
X92678571Y-51748571D01*
X92464286Y-51748571D01*
X92321428Y-51820000D01*
X92250000Y-51962857D01*
X92250000Y-52748571D01*
X90892857Y-52748571D02*
X90892857Y-51962857D01*
X90964286Y-51820000D01*
X91107143Y-51748571D01*
X91392857Y-51748571D01*
X91535714Y-51820000D01*
X90892857Y-52677143D02*
X91035714Y-52748571D01*
X91392857Y-52748571D01*
X91535714Y-52677143D01*
X91607143Y-52534286D01*
X91607143Y-52391429D01*
X91535714Y-52248571D01*
X91392857Y-52177143D01*
X91035714Y-52177143D01*
X90892857Y-52105714D01*
X90178571Y-52748571D02*
X90178571Y-51748571D01*
X90178571Y-51248571D02*
X90250000Y-51320000D01*
X90178571Y-51391429D01*
X90107143Y-51320000D01*
X90178571Y-51248571D01*
X90178571Y-51391429D01*
X89249999Y-52748571D02*
X89392857Y-52677143D01*
X89464285Y-52534286D01*
X89464285Y-51248571D01*
X88678571Y-52605714D02*
X88607143Y-52677143D01*
X88678571Y-52748571D01*
X88750000Y-52677143D01*
X88678571Y-52605714D01*
X88678571Y-52748571D01*
X88678571Y-51820000D02*
X88607143Y-51891429D01*
X88678571Y-51962857D01*
X88750000Y-51891429D01*
X88678571Y-51820000D01*
X88678571Y-51962857D01*
X86821428Y-52748571D02*
X86821428Y-51748571D01*
X86821428Y-51891429D02*
X86750000Y-51820000D01*
X86607142Y-51748571D01*
X86392857Y-51748571D01*
X86250000Y-51820000D01*
X86178571Y-51962857D01*
X86178571Y-52748571D01*
X86178571Y-51962857D02*
X86107142Y-51820000D01*
X85964285Y-51748571D01*
X85750000Y-51748571D01*
X85607142Y-51820000D01*
X85535714Y-51962857D01*
X85535714Y-52748571D01*
X84178571Y-52748571D02*
X84178571Y-51962857D01*
X84250000Y-51820000D01*
X84392857Y-51748571D01*
X84678571Y-51748571D01*
X84821428Y-51820000D01*
X84178571Y-52677143D02*
X84321428Y-52748571D01*
X84678571Y-52748571D01*
X84821428Y-52677143D01*
X84892857Y-52534286D01*
X84892857Y-52391429D01*
X84821428Y-52248571D01*
X84678571Y-52177143D01*
X84321428Y-52177143D01*
X84178571Y-52105714D01*
X83464285Y-52748571D02*
X83464285Y-51748571D01*
X83464285Y-52034286D02*
X83392857Y-51891429D01*
X83321428Y-51820000D01*
X83178571Y-51748571D01*
X83035714Y-51748571D01*
X82535714Y-52748571D02*
X82535714Y-51248571D01*
X82392857Y-52177143D02*
X81964286Y-52748571D01*
X81964286Y-51748571D02*
X82535714Y-52320000D01*
X80392857Y-52034286D02*
X80464285Y-51962857D01*
X80607142Y-51891429D01*
X80750000Y-51891429D01*
X80892857Y-51962857D01*
X80964285Y-52034286D01*
X81035714Y-52177143D01*
X81035714Y-52320000D01*
X80964285Y-52462857D01*
X80892857Y-52534286D01*
X80750000Y-52605714D01*
X80607142Y-52605714D01*
X80464285Y-52534286D01*
X80392857Y-52462857D01*
X80392857Y-51891429D02*
X80392857Y-52462857D01*
X80321428Y-52534286D01*
X80250000Y-52534286D01*
X80107142Y-52462857D01*
X80035714Y-52320000D01*
X80035714Y-51962857D01*
X80178571Y-51748571D01*
X80392857Y-51605714D01*
X80678571Y-51534286D01*
X80964285Y-51605714D01*
X81178571Y-51748571D01*
X81321428Y-51962857D01*
X81392857Y-52248571D01*
X81321428Y-52534286D01*
X81178571Y-52748571D01*
X80964285Y-52891429D01*
X80678571Y-52962857D01*
X80392857Y-52891429D01*
X80178571Y-52748571D01*
X79535714Y-51748571D02*
X79250000Y-52748571D01*
X78964286Y-52034286D01*
X78678571Y-52748571D01*
X78392857Y-51748571D01*
X77607142Y-52748571D02*
X77750000Y-52677143D01*
X77821428Y-52605714D01*
X77892857Y-52462857D01*
X77892857Y-52034286D01*
X77821428Y-51891429D01*
X77750000Y-51820000D01*
X77607142Y-51748571D01*
X77392857Y-51748571D01*
X77250000Y-51820000D01*
X77178571Y-51891429D01*
X77107142Y-52034286D01*
X77107142Y-52462857D01*
X77178571Y-52605714D01*
X77250000Y-52677143D01*
X77392857Y-52748571D01*
X77607142Y-52748571D01*
X76249999Y-52748571D02*
X76392857Y-52677143D01*
X76464285Y-52534286D01*
X76464285Y-51248571D01*
X75892857Y-51748571D02*
X75321428Y-51748571D01*
X75678571Y-52748571D02*
X75678571Y-51462857D01*
X75607143Y-51320000D01*
X75464285Y-51248571D01*
X75321428Y-51248571D01*
X74250000Y-52677143D02*
X74392857Y-52748571D01*
X74678571Y-52748571D01*
X74821428Y-52677143D01*
X74892857Y-52534286D01*
X74892857Y-51962857D01*
X74821428Y-51820000D01*
X74678571Y-51748571D01*
X74392857Y-51748571D01*
X74250000Y-51820000D01*
X74178571Y-51962857D01*
X74178571Y-52105714D01*
X74892857Y-52248571D01*
X73535714Y-52605714D02*
X73464286Y-52677143D01*
X73535714Y-52748571D01*
X73607143Y-52677143D01*
X73535714Y-52605714D01*
X73535714Y-52748571D01*
X72821428Y-52748571D02*
X72821428Y-51748571D01*
X72821428Y-51248571D02*
X72892857Y-51320000D01*
X72821428Y-51391429D01*
X72750000Y-51320000D01*
X72821428Y-51248571D01*
X72821428Y-51391429D01*
X71464285Y-52748571D02*
X71464285Y-51248571D01*
X71464285Y-52677143D02*
X71607142Y-52748571D01*
X71892856Y-52748571D01*
X72035714Y-52677143D01*
X72107142Y-52605714D01*
X72178571Y-52462857D01*
X72178571Y-52034286D01*
X72107142Y-51891429D01*
X72035714Y-51820000D01*
X71892856Y-51748571D01*
X71607142Y-51748571D01*
X71464285Y-51820000D01*
X70749999Y-52605714D02*
X70678571Y-52677143D01*
X70749999Y-52748571D01*
X70821428Y-52677143D01*
X70749999Y-52605714D01*
X70749999Y-52748571D01*
X69392856Y-52748571D02*
X69392856Y-51962857D01*
X69464285Y-51820000D01*
X69607142Y-51748571D01*
X69892856Y-51748571D01*
X70035713Y-51820000D01*
X69392856Y-52677143D02*
X69535713Y-52748571D01*
X69892856Y-52748571D01*
X70035713Y-52677143D01*
X70107142Y-52534286D01*
X70107142Y-52391429D01*
X70035713Y-52248571D01*
X69892856Y-52177143D01*
X69535713Y-52177143D01*
X69392856Y-52105714D01*
X68035713Y-51748571D02*
X68035713Y-52748571D01*
X68678570Y-51748571D02*
X68678570Y-52534286D01*
X68607142Y-52677143D01*
X68464284Y-52748571D01*
X68249999Y-52748571D01*
X68107142Y-52677143D01*
X68035713Y-52605714D01*
X95035714Y-53648571D02*
X94678571Y-55148571D01*
X94392857Y-54077143D01*
X94107143Y-55148571D01*
X93750000Y-53648571D01*
X92607143Y-55077143D02*
X92750000Y-55148571D01*
X93035714Y-55148571D01*
X93178571Y-55077143D01*
X93250000Y-54934286D01*
X93250000Y-54362857D01*
X93178571Y-54220000D01*
X93035714Y-54148571D01*
X92750000Y-54148571D01*
X92607143Y-54220000D01*
X92535714Y-54362857D01*
X92535714Y-54505714D01*
X93250000Y-54648571D01*
X91892857Y-55148571D02*
X91892857Y-53648571D01*
X91892857Y-54220000D02*
X91750000Y-54148571D01*
X91464286Y-54148571D01*
X91321429Y-54220000D01*
X91250000Y-54291429D01*
X91178571Y-54434286D01*
X91178571Y-54862857D01*
X91250000Y-55005714D01*
X91321429Y-55077143D01*
X91464286Y-55148571D01*
X91750000Y-55148571D01*
X91892857Y-55077143D01*
X90607143Y-55077143D02*
X90464286Y-55148571D01*
X90178571Y-55148571D01*
X90035714Y-55077143D01*
X89964286Y-54934286D01*
X89964286Y-54862857D01*
X90035714Y-54720000D01*
X90178571Y-54648571D01*
X90392857Y-54648571D01*
X90535714Y-54577143D01*
X90607143Y-54434286D01*
X90607143Y-54362857D01*
X90535714Y-54220000D01*
X90392857Y-54148571D01*
X90178571Y-54148571D01*
X90035714Y-54220000D01*
X89321428Y-55148571D02*
X89321428Y-54148571D01*
X89321428Y-53648571D02*
X89392857Y-53720000D01*
X89321428Y-53791429D01*
X89250000Y-53720000D01*
X89321428Y-53648571D01*
X89321428Y-53791429D01*
X88821428Y-54148571D02*
X88249999Y-54148571D01*
X88607142Y-53648571D02*
X88607142Y-54934286D01*
X88535714Y-55077143D01*
X88392856Y-55148571D01*
X88249999Y-55148571D01*
X87178571Y-55077143D02*
X87321428Y-55148571D01*
X87607142Y-55148571D01*
X87749999Y-55077143D01*
X87821428Y-54934286D01*
X87821428Y-54362857D01*
X87749999Y-54220000D01*
X87607142Y-54148571D01*
X87321428Y-54148571D01*
X87178571Y-54220000D01*
X87107142Y-54362857D01*
X87107142Y-54505714D01*
X87821428Y-54648571D01*
X86464285Y-55005714D02*
X86392857Y-55077143D01*
X86464285Y-55148571D01*
X86535714Y-55077143D01*
X86464285Y-55005714D01*
X86464285Y-55148571D01*
X86464285Y-54220000D02*
X86392857Y-54291429D01*
X86464285Y-54362857D01*
X86535714Y-54291429D01*
X86464285Y-54220000D01*
X86464285Y-54362857D01*
X84607142Y-55148571D02*
X84607142Y-53648571D01*
X83964285Y-55148571D02*
X83964285Y-54362857D01*
X84035714Y-54220000D01*
X84178571Y-54148571D01*
X84392856Y-54148571D01*
X84535714Y-54220000D01*
X84607142Y-54291429D01*
X83464285Y-54148571D02*
X82892856Y-54148571D01*
X83249999Y-53648571D02*
X83249999Y-54934286D01*
X83178571Y-55077143D01*
X83035713Y-55148571D01*
X82892856Y-55148571D01*
X82607142Y-54148571D02*
X82035713Y-54148571D01*
X82392856Y-53648571D02*
X82392856Y-54934286D01*
X82321428Y-55077143D01*
X82178570Y-55148571D01*
X82035713Y-55148571D01*
X81535713Y-54148571D02*
X81535713Y-55648571D01*
X81535713Y-54220000D02*
X81392856Y-54148571D01*
X81107142Y-54148571D01*
X80964285Y-54220000D01*
X80892856Y-54291429D01*
X80821427Y-54434286D01*
X80821427Y-54862857D01*
X80892856Y-55005714D01*
X80964285Y-55077143D01*
X81107142Y-55148571D01*
X81392856Y-55148571D01*
X81535713Y-55077143D01*
X80178570Y-55005714D02*
X80107142Y-55077143D01*
X80178570Y-55148571D01*
X80249999Y-55077143D01*
X80178570Y-55005714D01*
X80178570Y-55148571D01*
X80178570Y-54220000D02*
X80107142Y-54291429D01*
X80178570Y-54362857D01*
X80249999Y-54291429D01*
X80178570Y-54220000D01*
X80178570Y-54362857D01*
X78392856Y-53577143D02*
X79678570Y-55505714D01*
X76821427Y-53577143D02*
X78107141Y-55505714D01*
X76464283Y-54148571D02*
X76178569Y-55148571D01*
X75892855Y-54434286D01*
X75607140Y-55148571D01*
X75321426Y-54148571D01*
X74892854Y-54148571D02*
X74607140Y-55148571D01*
X74321426Y-54434286D01*
X74035711Y-55148571D01*
X73749997Y-54148571D01*
X73321425Y-54148571D02*
X73035711Y-55148571D01*
X72749997Y-54434286D01*
X72464282Y-55148571D01*
X72178568Y-54148571D01*
X71607139Y-55005714D02*
X71535711Y-55077143D01*
X71607139Y-55148571D01*
X71678568Y-55077143D01*
X71607139Y-55005714D01*
X71607139Y-55148571D01*
X71035710Y-54148571D02*
X70749996Y-55148571D01*
X70464282Y-54434286D01*
X70178567Y-55148571D01*
X69892853Y-54148571D01*
X69107138Y-55148571D02*
X69249996Y-55077143D01*
X69321424Y-55005714D01*
X69392853Y-54862857D01*
X69392853Y-54434286D01*
X69321424Y-54291429D01*
X69249996Y-54220000D01*
X69107138Y-54148571D01*
X68892853Y-54148571D01*
X68749996Y-54220000D01*
X68678567Y-54291429D01*
X68607138Y-54434286D01*
X68607138Y-54862857D01*
X68678567Y-55005714D01*
X68749996Y-55077143D01*
X68892853Y-55148571D01*
X69107138Y-55148571D01*
X67749995Y-55148571D02*
X67892853Y-55077143D01*
X67964281Y-54934286D01*
X67964281Y-53648571D01*
X67392853Y-54148571D02*
X66821424Y-54148571D01*
X67178567Y-55148571D02*
X67178567Y-53862857D01*
X67107139Y-53720000D01*
X66964281Y-53648571D01*
X66821424Y-53648571D01*
X65749996Y-55077143D02*
X65892853Y-55148571D01*
X66178567Y-55148571D01*
X66321424Y-55077143D01*
X66392853Y-54934286D01*
X66392853Y-54362857D01*
X66321424Y-54220000D01*
X66178567Y-54148571D01*
X65892853Y-54148571D01*
X65749996Y-54220000D01*
X65678567Y-54362857D01*
X65678567Y-54505714D01*
X66392853Y-54648571D01*
X65035710Y-55005714D02*
X64964282Y-55077143D01*
X65035710Y-55148571D01*
X65107139Y-55077143D01*
X65035710Y-55005714D01*
X65035710Y-55148571D01*
X64321424Y-55148571D02*
X64321424Y-54148571D01*
X64321424Y-53648571D02*
X64392853Y-53720000D01*
X64321424Y-53791429D01*
X64249996Y-53720000D01*
X64321424Y-53648571D01*
X64321424Y-53791429D01*
X62964281Y-55148571D02*
X62964281Y-53648571D01*
X62964281Y-55077143D02*
X63107138Y-55148571D01*
X63392852Y-55148571D01*
X63535710Y-55077143D01*
X63607138Y-55005714D01*
X63678567Y-54862857D01*
X63678567Y-54434286D01*
X63607138Y-54291429D01*
X63535710Y-54220000D01*
X63392852Y-54148571D01*
X63107138Y-54148571D01*
X62964281Y-54220000D01*
X62249995Y-55005714D02*
X62178567Y-55077143D01*
X62249995Y-55148571D01*
X62321424Y-55077143D01*
X62249995Y-55005714D01*
X62249995Y-55148571D01*
X60892852Y-55148571D02*
X60892852Y-54362857D01*
X60964281Y-54220000D01*
X61107138Y-54148571D01*
X61392852Y-54148571D01*
X61535709Y-54220000D01*
X60892852Y-55077143D02*
X61035709Y-55148571D01*
X61392852Y-55148571D01*
X61535709Y-55077143D01*
X61607138Y-54934286D01*
X61607138Y-54791429D01*
X61535709Y-54648571D01*
X61392852Y-54577143D01*
X61035709Y-54577143D01*
X60892852Y-54505714D01*
X59535709Y-54148571D02*
X59535709Y-55148571D01*
X60178566Y-54148571D02*
X60178566Y-54934286D01*
X60107138Y-55077143D01*
X59964280Y-55148571D01*
X59749995Y-55148571D01*
X59607138Y-55077143D01*
X59535709Y-55005714D01*
X94035714Y-57548571D02*
X94535714Y-56834286D01*
X94892857Y-57548571D02*
X94892857Y-56048571D01*
X94321429Y-56048571D01*
X94178571Y-56120000D01*
X94107143Y-56191429D01*
X94035714Y-56334286D01*
X94035714Y-56548571D01*
X94107143Y-56691429D01*
X94178571Y-56762857D01*
X94321429Y-56834286D01*
X94892857Y-56834286D01*
X92821429Y-57477143D02*
X92964286Y-57548571D01*
X93250000Y-57548571D01*
X93392857Y-57477143D01*
X93464286Y-57334286D01*
X93464286Y-56762857D01*
X93392857Y-56620000D01*
X93250000Y-56548571D01*
X92964286Y-56548571D01*
X92821429Y-56620000D01*
X92750000Y-56762857D01*
X92750000Y-56905714D01*
X93464286Y-57048571D01*
X92250000Y-56548571D02*
X91892857Y-57548571D01*
X91535715Y-56548571D01*
X90964286Y-57405714D02*
X90892858Y-57477143D01*
X90964286Y-57548571D01*
X91035715Y-57477143D01*
X90964286Y-57405714D01*
X90964286Y-57548571D01*
X90964286Y-56620000D02*
X90892858Y-56691429D01*
X90964286Y-56762857D01*
X91035715Y-56691429D01*
X90964286Y-56620000D01*
X90964286Y-56762857D01*
X88321429Y-57548571D02*
X89178572Y-57548571D01*
X88750000Y-57548571D02*
X88750000Y-56048571D01*
X88892857Y-56262857D01*
X89035715Y-56405714D01*
X89178572Y-56477143D01*
X87678572Y-57405714D02*
X87607144Y-57477143D01*
X87678572Y-57548571D01*
X87750001Y-57477143D01*
X87678572Y-57405714D01*
X87678572Y-57548571D01*
X86678572Y-56048571D02*
X86535715Y-56048571D01*
X86392858Y-56120000D01*
X86321429Y-56191429D01*
X86250000Y-56334286D01*
X86178572Y-56620000D01*
X86178572Y-56977143D01*
X86250000Y-57262857D01*
X86321429Y-57405714D01*
X86392858Y-57477143D01*
X86535715Y-57548571D01*
X86678572Y-57548571D01*
X86821429Y-57477143D01*
X86892858Y-57405714D01*
X86964286Y-57262857D01*
X87035715Y-56977143D01*
X87035715Y-56620000D01*
X86964286Y-56334286D01*
X86892858Y-56191429D01*
X86821429Y-56120000D01*
X86678572Y-56048571D01*
M02*
