M48
METRIC,TZ
T1C0.500
T2C0.550
T3C0.635
T4C1.016
T5C3.200
%
G90
G05
T3
X72500Y-42326
X74894Y-35997
X75775Y-33020
X81728Y-38735
T4
X22860Y-29210
X22860Y-31750
X22860Y-34290
X22860Y-36830
X22860Y-39370
X22860Y-41910
X22860Y-44450
X22860Y-46990
X22860Y-49530
X22860Y-52070
X22860Y-54610
X27305Y-60960
X29210Y-54610
X29845Y-60960
X31750Y-54610
X32385Y-60960
X34290Y-54610
X34925Y-60960
X36830Y-54610
X37465Y-60960
X39370Y-54610
X40005Y-60960
X41910Y-54610
X44450Y-54610
X46990Y-54610
X52705Y-24130
X52705Y-29210
X52705Y-31750
X52705Y-34290
X52705Y-36830
X52705Y-39370
X52705Y-41910
X52705Y-44450
X52705Y-46990
X52705Y-49530
X52705Y-52070
X52705Y-54610
X55245Y-24130
X57785Y-24130
X63500Y-24130
X66040Y-24130
X77470Y-60960
X80010Y-60960
X82550Y-60960
X85090Y-60960
T5
X20955Y-23495
X20955Y-61595
X93345Y-23495
X93345Y-61595
T1
X72066Y-23303G85X72066Y-23953
G05
X79066Y-23303G85X79066Y-23953
G05
T2
X73216Y-26328G85X72916Y-26328
G05
X78216Y-26328G85X77916Y-26328
G05
T0
M30
