G04 #@! TF.FileFunction,Copper,L1,Top,Signal*
%FSLAX46Y46*%
G04 Gerber Fmt 4.6, Leading zero omitted, Abs format (unit mm)*
G04 Created by KiCad (PCBNEW (2015-03-05 BZR 5481)-product) date Monday, 13 July 2015 02:26:57 pm*
%MOMM*%
G01*
G04 APERTURE LIST*
%ADD10C,0.100000*%
%ADD11R,2.032000X1.727200*%
%ADD12O,2.032000X1.727200*%
%ADD13R,1.727200X2.032000*%
%ADD14O,1.727200X2.032000*%
%ADD15R,1.060000X0.650000*%
%ADD16O,1.100000X2.400000*%
%ADD17R,2.400000X1.100000*%
%ADD18O,2.400000X1.100000*%
%ADD19R,3.657600X2.032000*%
%ADD20R,1.016000X2.032000*%
%ADD21R,0.400000X1.350000*%
%ADD22O,1.250000X0.950000*%
%ADD23O,1.000000X1.550000*%
%ADD24R,2.032000X2.032000*%
%ADD25O,2.032000X2.032000*%
%ADD26R,1.198880X1.198880*%
%ADD27C,4.000000*%
%ADD28R,1.000000X1.250000*%
%ADD29R,0.700000X1.300000*%
%ADD30R,1.524000X2.540000*%
%ADD31C,0.889000*%
%ADD32C,0.254000*%
G04 APERTURE END LIST*
D10*
D11*
X52705000Y-29210000D03*
D12*
X52705000Y-31750000D03*
X52705000Y-34290000D03*
X52705000Y-36830000D03*
X52705000Y-39370000D03*
X52705000Y-41910000D03*
X52705000Y-44450000D03*
X52705000Y-46990000D03*
X52705000Y-49530000D03*
X52705000Y-52070000D03*
X52705000Y-54610000D03*
D11*
X22860000Y-54610000D03*
D12*
X22860000Y-52070000D03*
X22860000Y-49530000D03*
X22860000Y-46990000D03*
X22860000Y-44450000D03*
X22860000Y-41910000D03*
X22860000Y-39370000D03*
X22860000Y-36830000D03*
X22860000Y-34290000D03*
X22860000Y-31750000D03*
X22860000Y-29210000D03*
D13*
X46990000Y-54610000D03*
D14*
X44450000Y-54610000D03*
X41910000Y-54610000D03*
X39370000Y-54610000D03*
X36830000Y-54610000D03*
X34290000Y-54610000D03*
X31750000Y-54610000D03*
X29210000Y-54610000D03*
D13*
X52705000Y-24130000D03*
D14*
X55245000Y-24130000D03*
X57785000Y-24130000D03*
D15*
X66210000Y-30800000D03*
X66210000Y-31750000D03*
X66210000Y-32700000D03*
X68410000Y-32700000D03*
X68410000Y-30800000D03*
X68410000Y-31750000D03*
D16*
X32835000Y-38610000D03*
X34835000Y-38610000D03*
X36835000Y-38610000D03*
X38835000Y-38610000D03*
X40835000Y-38610000D03*
X42835000Y-38610000D03*
D17*
X29845000Y-22860000D03*
D18*
X29845000Y-24860000D03*
X29845000Y-26860000D03*
X29845000Y-28860000D03*
X29845000Y-30860000D03*
X29845000Y-32860000D03*
X29845000Y-34860000D03*
X29845000Y-36860000D03*
X45845000Y-36860000D03*
X45845000Y-34860000D03*
X45845000Y-32860000D03*
X45845000Y-30860000D03*
X45845000Y-28860000D03*
X45845000Y-26860000D03*
X45845000Y-24860000D03*
X45845000Y-22860000D03*
D19*
X87630000Y-27813000D03*
D20*
X87630000Y-34417000D03*
X89916000Y-34417000D03*
X85344000Y-34417000D03*
D13*
X77470000Y-60960000D03*
D14*
X80010000Y-60960000D03*
X82550000Y-60960000D03*
X85090000Y-60960000D03*
D15*
X77005000Y-32070000D03*
X77005000Y-33020000D03*
X77005000Y-33970000D03*
X79205000Y-33970000D03*
X79205000Y-32070000D03*
D21*
X76865900Y-26327540D03*
X76215900Y-26327540D03*
X75565900Y-26327540D03*
X74915900Y-26327540D03*
X74265900Y-26327540D03*
D22*
X78065900Y-26327540D03*
X73065900Y-26327540D03*
D23*
X79065900Y-23627540D03*
X72065900Y-23627540D03*
D24*
X63500000Y-24130000D03*
D25*
X66040000Y-24130000D03*
D26*
X74074020Y-32385000D03*
X71975980Y-32385000D03*
D13*
X27305000Y-60960000D03*
D14*
X29845000Y-60960000D03*
X32385000Y-60960000D03*
X34925000Y-60960000D03*
X37465000Y-60960000D03*
X40005000Y-60960000D03*
D27*
X20955000Y-23495000D03*
X93345000Y-23495000D03*
X93345000Y-61595000D03*
X20955000Y-61595000D03*
D28*
X66945000Y-47625000D03*
X68945000Y-47625000D03*
X66945000Y-52070000D03*
X68945000Y-52070000D03*
X86630000Y-48895000D03*
X88630000Y-48895000D03*
X66945000Y-43180000D03*
X68945000Y-43180000D03*
X86630000Y-44450000D03*
X88630000Y-44450000D03*
X86630000Y-40005000D03*
X88630000Y-40005000D03*
D29*
X78425000Y-54610000D03*
X80325000Y-54610000D03*
X66995000Y-38100000D03*
X68895000Y-38100000D03*
X78425000Y-51435000D03*
X80325000Y-51435000D03*
X78425000Y-45085000D03*
X80325000Y-45085000D03*
X78425000Y-48260000D03*
X80325000Y-48260000D03*
X78425000Y-38735000D03*
X80325000Y-38735000D03*
X78425000Y-41910000D03*
X80325000Y-41910000D03*
D30*
X66165000Y-60960000D03*
X59565000Y-60960000D03*
D31*
X75775300Y-33020000D03*
X81727900Y-38735000D03*
X72500000Y-42326300D03*
X74893800Y-35996800D03*
D32*
X67121300Y-36326300D02*
X67121300Y-32700000D01*
X68163700Y-37368700D02*
X67121300Y-36326300D01*
X68163700Y-38100000D02*
X68163700Y-37368700D01*
X66210000Y-32700000D02*
X67121300Y-32700000D01*
X68895000Y-38100000D02*
X68163700Y-38100000D01*
X66945000Y-47625000D02*
X66063700Y-47625000D01*
X66945000Y-47625000D02*
X67826300Y-47625000D01*
X78761800Y-54610000D02*
X78425000Y-54610000D01*
X81056400Y-52315400D02*
X78761800Y-54610000D01*
X81056400Y-50550800D02*
X81056400Y-52315400D01*
X80305400Y-49799800D02*
X81056400Y-50550800D01*
X69450300Y-49799800D02*
X80305400Y-49799800D01*
X67826300Y-48175800D02*
X69450300Y-49799800D01*
X67826300Y-47625000D02*
X67826300Y-48175800D01*
X65555400Y-47116700D02*
X66063700Y-47625000D01*
X65555400Y-42081600D02*
X65555400Y-47116700D01*
X68163700Y-39473300D02*
X65555400Y-42081600D01*
X68163700Y-38100000D02*
X68163700Y-39473300D01*
X66165000Y-60960000D02*
X67308300Y-60960000D01*
X74265900Y-26327500D02*
X74265900Y-27383800D01*
X88630000Y-44450000D02*
X88630000Y-48895000D01*
X67865800Y-32700000D02*
X68410000Y-32700000D01*
X67121300Y-31955500D02*
X67865800Y-32700000D01*
X67121300Y-30800000D02*
X67121300Y-31955500D01*
X27305000Y-60960000D02*
X28549900Y-60960000D01*
X52705000Y-54610000D02*
X52705000Y-55854900D01*
X51162900Y-57397000D02*
X52705000Y-55854900D01*
X31490500Y-57397000D02*
X51162900Y-57397000D01*
X28549900Y-60337600D02*
X31490500Y-57397000D01*
X28549900Y-60960000D02*
X28549900Y-60337600D01*
X66210000Y-30800000D02*
X67121300Y-30800000D01*
X45845000Y-42670000D02*
X52705000Y-49530000D01*
X45845000Y-36860000D02*
X45845000Y-42670000D01*
X68945000Y-52070000D02*
X69826300Y-52070000D01*
X68091100Y-24783800D02*
X72065900Y-24783800D01*
X67437300Y-24130000D02*
X68091100Y-24783800D01*
X72065900Y-23627500D02*
X72065900Y-24783800D01*
X66040000Y-24130000D02*
X67437300Y-24130000D01*
X52705000Y-52070000D02*
X52705000Y-51447500D01*
X68063700Y-51519200D02*
X68063700Y-52070000D01*
X67608100Y-51063600D02*
X68063700Y-51519200D01*
X52705000Y-51063600D02*
X67608100Y-51063600D01*
X52705000Y-51447500D02*
X52705000Y-51063600D01*
X52705000Y-51063600D02*
X52705000Y-49530000D01*
X77005000Y-33020000D02*
X76093700Y-33020000D01*
X76093700Y-33020000D02*
X75775300Y-33020000D01*
X81727900Y-38735000D02*
X80325000Y-38735000D01*
X84648600Y-35814300D02*
X85344000Y-35814300D01*
X81727900Y-38735000D02*
X84648600Y-35814300D01*
X85344000Y-34417000D02*
X85344000Y-35814300D01*
X88528400Y-38998700D02*
X85344000Y-35814300D01*
X88630000Y-38998700D02*
X88528400Y-38998700D01*
X88630000Y-40005000D02*
X88630000Y-38998700D01*
X53327400Y-27965100D02*
X52705000Y-27965100D01*
X56540100Y-24752400D02*
X53327400Y-27965100D01*
X56540100Y-24130000D02*
X56540100Y-24752400D01*
X57785000Y-24130000D02*
X56540100Y-24130000D01*
X52705000Y-29210000D02*
X52705000Y-27965100D01*
X68945000Y-52070000D02*
X68063700Y-52070000D01*
X73925700Y-52070000D02*
X69826300Y-52070000D01*
X74560700Y-51435000D02*
X73925700Y-52070000D01*
X78425000Y-51435000D02*
X74560700Y-51435000D01*
X73065900Y-26327500D02*
X73065900Y-26755600D01*
X73065900Y-26755600D02*
X73065900Y-27183800D01*
X72065900Y-25755600D02*
X72065900Y-24783800D01*
X73065900Y-26755600D02*
X72065900Y-25755600D01*
X73165900Y-27383800D02*
X74265900Y-27383800D01*
X73165900Y-27283800D02*
X73165900Y-27383800D01*
X73065900Y-27183800D02*
X73165900Y-27283800D01*
X73165900Y-28855400D02*
X69321300Y-32700000D01*
X73165900Y-27383800D02*
X73165900Y-28855400D01*
X72801000Y-60960000D02*
X67308300Y-60960000D01*
X73925700Y-59835300D02*
X72801000Y-60960000D01*
X73925700Y-52070000D02*
X73925700Y-59835300D01*
X83845100Y-61582400D02*
X83845100Y-60960000D01*
X83053600Y-62373900D02*
X83845100Y-61582400D01*
X76464300Y-62373900D02*
X83053600Y-62373900D01*
X73925700Y-59835300D02*
X76464300Y-62373900D01*
X85090000Y-60960000D02*
X84467600Y-60960000D01*
X84467600Y-60960000D02*
X83845100Y-60960000D01*
X88630000Y-56797600D02*
X88630000Y-48895000D01*
X84467600Y-60960000D02*
X88630000Y-56797600D01*
X68410000Y-32700000D02*
X68869600Y-32700000D01*
X68869600Y-32700000D02*
X69321300Y-32700000D01*
X68945000Y-43180000D02*
X68945000Y-42173700D01*
X68945000Y-47625000D02*
X68945000Y-46618700D01*
X69626400Y-41492300D02*
X68945000Y-42173700D01*
X69626400Y-33456800D02*
X69626400Y-41492300D01*
X68869600Y-32700000D02*
X69626400Y-33456800D01*
X68719600Y-46618700D02*
X68945000Y-46618700D01*
X66063700Y-43962800D02*
X68719600Y-46618700D01*
X66063700Y-42390900D02*
X66063700Y-43962800D01*
X66280900Y-42173700D02*
X66063700Y-42390900D01*
X68945000Y-42173700D02*
X66280900Y-42173700D01*
X68410000Y-31750000D02*
X69321300Y-31750000D01*
X23528200Y-30505100D02*
X22860000Y-30505100D01*
X24302800Y-29730500D02*
X23528200Y-30505100D01*
X24302800Y-26820900D02*
X24302800Y-29730500D01*
X28263700Y-22860000D02*
X24302800Y-26820900D01*
X29845000Y-22860000D02*
X28263700Y-22860000D01*
X22860000Y-31750000D02*
X22860000Y-30505100D01*
X29845000Y-22860000D02*
X31426300Y-22860000D01*
X59565000Y-60960000D02*
X59565000Y-59308700D01*
X66945000Y-52070000D02*
X66063700Y-52070000D01*
X31426300Y-22860000D02*
X44260000Y-22860000D01*
X69321300Y-30263000D02*
X69321300Y-31750000D01*
X67654200Y-28595900D02*
X69321300Y-30263000D01*
X64212500Y-28595900D02*
X67654200Y-28595900D01*
X57511900Y-21895300D02*
X64212500Y-28595900D01*
X44842100Y-21895300D02*
X57511900Y-21895300D01*
X44260000Y-22477400D02*
X44842100Y-21895300D01*
X44260000Y-22860000D02*
X44260000Y-22477400D01*
X59565000Y-59308700D02*
X59565000Y-53340000D01*
X64793700Y-53340000D02*
X59565000Y-53340000D01*
X66063700Y-52070000D02*
X64793700Y-53340000D01*
X44260000Y-37307900D02*
X44260000Y-22860000D01*
X45327300Y-38375200D02*
X44260000Y-37307900D01*
X45327300Y-46624900D02*
X45327300Y-38375200D01*
X52042400Y-53340000D02*
X45327300Y-46624900D01*
X59565000Y-53340000D02*
X52042400Y-53340000D01*
X76865900Y-26327500D02*
X76865900Y-25271200D01*
X21415800Y-53165800D02*
X22860000Y-54610000D01*
X21415800Y-28665000D02*
X21415800Y-53165800D01*
X28739300Y-21341500D02*
X21415800Y-28665000D01*
X72936200Y-21341500D02*
X28739300Y-21341500D01*
X76865900Y-25271200D02*
X72936200Y-21341500D01*
X89916000Y-34417000D02*
X89916000Y-33019700D01*
X79205000Y-33970000D02*
X80116300Y-33970000D01*
X89916000Y-34417000D02*
X89916000Y-35814300D01*
X90026800Y-35925100D02*
X89916000Y-35814300D01*
X90026800Y-41309200D02*
X90026800Y-35925100D01*
X86630000Y-44706000D02*
X90026800Y-41309200D01*
X86630000Y-45132500D02*
X86630000Y-44706000D01*
X86630000Y-44450000D02*
X86630000Y-45132500D01*
X86630000Y-45132500D02*
X86630000Y-48895000D01*
X76865900Y-26327500D02*
X76865900Y-27383800D01*
X75996500Y-27383800D02*
X76865900Y-27383800D01*
X71976000Y-31404300D02*
X75996500Y-27383800D01*
X71976000Y-32385000D02*
X71976000Y-31404300D01*
X81066600Y-31584500D02*
X76865900Y-27383800D01*
X81066600Y-33019700D02*
X81066600Y-31584500D01*
X89916000Y-33019700D02*
X81066600Y-33019700D01*
X81066600Y-33019700D02*
X80116300Y-33970000D01*
X22860000Y-52070000D02*
X22860000Y-53314900D01*
X46990000Y-54610000D02*
X45745100Y-54610000D01*
X24104900Y-53314900D02*
X22860000Y-53314900D01*
X26799200Y-56009200D02*
X24104900Y-53314900D01*
X44968300Y-56009200D02*
X26799200Y-56009200D01*
X45745100Y-55232400D02*
X44968300Y-56009200D01*
X45745100Y-54610000D02*
X45745100Y-55232400D01*
X79593700Y-55341300D02*
X79593700Y-54610000D01*
X78714900Y-56220100D02*
X79593700Y-55341300D01*
X78714900Y-60960000D02*
X78714900Y-56220100D01*
X77470000Y-60960000D02*
X78714900Y-60960000D01*
X80325000Y-54610000D02*
X79593700Y-54610000D01*
X22860000Y-49530000D02*
X22860000Y-48285100D01*
X23482400Y-48285100D02*
X22860000Y-48285100D01*
X29845000Y-41922500D02*
X23482400Y-48285100D01*
X29845000Y-36860000D02*
X29845000Y-41922500D01*
X80325000Y-54610000D02*
X81056300Y-54610000D01*
X78425000Y-45085000D02*
X78059400Y-45085000D01*
X67826300Y-43730800D02*
X67826300Y-43180000D01*
X69180500Y-45085000D02*
X67826300Y-43730800D01*
X78059400Y-45085000D02*
X69180500Y-45085000D01*
X80325000Y-48260000D02*
X80325000Y-49291300D01*
X66945000Y-43180000D02*
X67826300Y-43180000D01*
X80539300Y-49291300D02*
X80325000Y-49291300D01*
X81618500Y-50370500D02*
X80539300Y-49291300D01*
X81618500Y-54047800D02*
X81618500Y-50370500D01*
X81056300Y-54610000D02*
X81618500Y-54047800D01*
X87630000Y-34417000D02*
X87630000Y-35814300D01*
X89511400Y-37695700D02*
X87630000Y-35814300D01*
X89511400Y-40790500D02*
X89511400Y-37695700D01*
X89196300Y-41105600D02*
X89511400Y-40790500D01*
X85861300Y-41105600D02*
X89196300Y-41105600D01*
X80799700Y-46167200D02*
X85861300Y-41105600D01*
X78059400Y-46167200D02*
X80799700Y-46167200D01*
X77693600Y-46533000D02*
X78059400Y-46167200D01*
X77693600Y-49072400D02*
X77693600Y-46533000D01*
X77912500Y-49291300D02*
X77693600Y-49072400D01*
X80325000Y-49291300D02*
X77912500Y-49291300D01*
X78059400Y-46167200D02*
X78059400Y-45085000D01*
X74014900Y-33424800D02*
X74074000Y-33365700D01*
X74014900Y-36595600D02*
X74014900Y-33424800D01*
X78149300Y-40730000D02*
X74014900Y-36595600D01*
X78870800Y-40730000D02*
X78149300Y-40730000D01*
X79593700Y-41452900D02*
X78870800Y-40730000D01*
X79593700Y-41910000D02*
X79593700Y-41452900D01*
X80325000Y-41910000D02*
X79593700Y-41910000D01*
X74074000Y-32385000D02*
X74074000Y-33365700D01*
X48419100Y-25852800D02*
X47426300Y-24860000D01*
X48419100Y-29457400D02*
X48419100Y-25852800D01*
X52006800Y-33045100D02*
X48419100Y-29457400D01*
X52705000Y-33045100D02*
X52006800Y-33045100D01*
X52705000Y-34290000D02*
X52705000Y-33045100D01*
X45845000Y-24860000D02*
X47426300Y-24860000D01*
X50316900Y-25750600D02*
X47426300Y-22860000D01*
X50316900Y-29284100D02*
X50316900Y-25750600D01*
X51537900Y-30505100D02*
X50316900Y-29284100D01*
X52705000Y-30505100D02*
X51537900Y-30505100D01*
X52705000Y-31750000D02*
X52705000Y-30505100D01*
X45845000Y-22860000D02*
X47426300Y-22860000D01*
X52087000Y-35585100D02*
X52705000Y-35585100D01*
X51228700Y-34726800D02*
X52087000Y-35585100D01*
X51228700Y-32986000D02*
X51228700Y-34726800D01*
X47426300Y-29183600D02*
X51228700Y-32986000D01*
X47426300Y-26860000D02*
X47426300Y-29183600D01*
X52705000Y-36830000D02*
X52705000Y-35585100D01*
X45845000Y-26860000D02*
X47426300Y-26860000D01*
X49827000Y-32842000D02*
X45845000Y-28860000D01*
X49827000Y-35869500D02*
X49827000Y-32842000D01*
X52082600Y-38125100D02*
X49827000Y-35869500D01*
X52705000Y-38125100D02*
X52082600Y-38125100D01*
X52705000Y-39370000D02*
X52705000Y-38125100D01*
X81254900Y-59715100D02*
X81254900Y-60960000D01*
X82142400Y-58827600D02*
X81254900Y-59715100D01*
X82142400Y-48529900D02*
X82142400Y-58827600D01*
X80838600Y-47226100D02*
X82142400Y-48529900D01*
X79733100Y-47226100D02*
X80838600Y-47226100D01*
X79156300Y-47802900D02*
X79733100Y-47226100D01*
X79156300Y-48260000D02*
X79156300Y-47802900D01*
X78425000Y-48260000D02*
X79156300Y-48260000D01*
X80010000Y-60960000D02*
X81254900Y-60960000D01*
X52036800Y-40665100D02*
X52705000Y-40665100D01*
X50847100Y-39475400D02*
X52036800Y-40665100D01*
X50847100Y-37677700D02*
X50847100Y-39475400D01*
X49218500Y-36049100D02*
X50847100Y-37677700D01*
X49218500Y-34233500D02*
X49218500Y-36049100D01*
X45845000Y-30860000D02*
X49218500Y-34233500D01*
X52705000Y-41910000D02*
X52705000Y-40665100D01*
X54947200Y-40665100D02*
X52705000Y-40665100D01*
X65518700Y-30093600D02*
X54947200Y-40665100D01*
X67703600Y-30093600D02*
X65518700Y-30093600D01*
X68410000Y-30800000D02*
X67703600Y-30093600D01*
X52705000Y-44450000D02*
X52705000Y-43205100D01*
X52036800Y-43205100D02*
X52705000Y-43205100D01*
X49038900Y-40207200D02*
X52036800Y-43205100D01*
X49038900Y-37166200D02*
X49038900Y-40207200D01*
X48710100Y-36837400D02*
X49038900Y-37166200D01*
X48710100Y-35725100D02*
X48710100Y-36837400D01*
X45845000Y-32860000D02*
X48710100Y-35725100D01*
X52705000Y-46990000D02*
X52705000Y-45745100D01*
X52036800Y-45745100D02*
X52705000Y-45745100D01*
X48510800Y-42219100D02*
X52036800Y-45745100D01*
X48510800Y-37525800D02*
X48510800Y-42219100D01*
X45845000Y-34860000D02*
X48510800Y-37525800D01*
X53949900Y-48234900D02*
X52705000Y-48234900D01*
X56085000Y-50370000D02*
X53949900Y-48234900D01*
X78985800Y-50370000D02*
X56085000Y-50370000D01*
X79593700Y-50977900D02*
X78985800Y-50370000D01*
X79593700Y-51435000D02*
X79593700Y-50977900D01*
X80325000Y-51435000D02*
X79593700Y-51435000D01*
X52705000Y-46990000D02*
X52705000Y-48234900D01*
X23528200Y-45745100D02*
X22860000Y-45745100D01*
X28263700Y-41009600D02*
X23528200Y-45745100D01*
X28263700Y-34860000D02*
X28263700Y-41009600D01*
X22860000Y-46990000D02*
X22860000Y-45745100D01*
X29845000Y-34860000D02*
X28263700Y-34860000D01*
X29845000Y-32860000D02*
X28263700Y-32860000D01*
X22860000Y-44450000D02*
X22860000Y-43205100D01*
X27755400Y-33368300D02*
X28263700Y-32860000D01*
X27755400Y-38977900D02*
X27755400Y-33368300D01*
X23528200Y-43205100D02*
X27755400Y-38977900D01*
X22860000Y-43205100D02*
X23528200Y-43205100D01*
X23528200Y-40665100D02*
X22860000Y-40665100D01*
X26844400Y-37348900D02*
X23528200Y-40665100D01*
X26844400Y-32279300D02*
X26844400Y-37348900D01*
X28263700Y-30860000D02*
X26844400Y-32279300D01*
X29845000Y-30860000D02*
X28263700Y-30860000D01*
X22860000Y-41910000D02*
X22860000Y-40665100D01*
X29845000Y-28860000D02*
X28263700Y-28860000D01*
X22860000Y-39370000D02*
X22860000Y-38125100D01*
X26336100Y-30787600D02*
X28263700Y-28860000D01*
X26336100Y-35317200D02*
X26336100Y-30787600D01*
X23528200Y-38125100D02*
X26336100Y-35317200D01*
X22860000Y-38125100D02*
X23528200Y-38125100D01*
X22860000Y-36830000D02*
X22860000Y-35585100D01*
X29845000Y-26860000D02*
X28263700Y-26860000D01*
X77292100Y-42326300D02*
X72500000Y-42326300D01*
X79593700Y-44627900D02*
X77292100Y-42326300D01*
X79593700Y-45085000D02*
X79593700Y-44627900D01*
X80325000Y-45085000D02*
X79593700Y-45085000D01*
X25499100Y-29624600D02*
X28263700Y-26860000D01*
X25499100Y-33568400D02*
X25499100Y-29624600D01*
X23482400Y-35585100D02*
X25499100Y-33568400D01*
X22860000Y-35585100D02*
X23482400Y-35585100D01*
X23528200Y-33045100D02*
X22860000Y-33045100D01*
X24990700Y-31582600D02*
X23528200Y-33045100D01*
X24990700Y-28133000D02*
X24990700Y-31582600D01*
X28263700Y-24860000D02*
X24990700Y-28133000D01*
X29845000Y-24860000D02*
X28263700Y-24860000D01*
X22860000Y-34290000D02*
X22860000Y-33045100D01*
X44450000Y-41806300D02*
X44450000Y-54610000D01*
X42835000Y-40191300D02*
X44450000Y-41806300D01*
X42835000Y-38610000D02*
X42835000Y-40191300D01*
X40665100Y-40361200D02*
X40665100Y-54610000D01*
X40835000Y-40191300D02*
X40665100Y-40361200D01*
X41910000Y-54610000D02*
X40665100Y-54610000D01*
X40835000Y-38610000D02*
X40835000Y-40191300D01*
X39370000Y-40726300D02*
X39370000Y-54610000D01*
X38835000Y-40191300D02*
X39370000Y-40726300D01*
X38835000Y-38610000D02*
X38835000Y-40191300D01*
X36830000Y-40196300D02*
X36830000Y-54610000D01*
X36835000Y-40191300D02*
X36830000Y-40196300D01*
X36835000Y-38610000D02*
X36835000Y-40191300D01*
X34835000Y-52667700D02*
X34290000Y-53212700D01*
X34835000Y-38610000D02*
X34835000Y-52667700D01*
X34290000Y-54610000D02*
X34290000Y-53212700D01*
X31750000Y-41276300D02*
X31750000Y-54610000D01*
X32835000Y-40191300D02*
X31750000Y-41276300D01*
X32835000Y-38610000D02*
X32835000Y-40191300D01*
X65298700Y-37135000D02*
X65298700Y-31750000D01*
X66263700Y-38100000D02*
X65298700Y-37135000D01*
X66995000Y-38100000D02*
X66263700Y-38100000D01*
X66210000Y-31750000D02*
X65298700Y-31750000D01*
X78293700Y-37572400D02*
X78293700Y-32070000D01*
X78425000Y-37703700D02*
X78293700Y-37572400D01*
X78425000Y-38735000D02*
X78425000Y-37703700D01*
X79205000Y-32070000D02*
X78293700Y-32070000D01*
X75398800Y-31375100D02*
X76093700Y-32070000D01*
X73344400Y-31375100D02*
X75398800Y-31375100D01*
X73093200Y-31626300D02*
X73344400Y-31375100D01*
X73093200Y-37309500D02*
X73093200Y-31626300D01*
X77693700Y-41910000D02*
X73093200Y-37309500D01*
X78425000Y-41910000D02*
X77693700Y-41910000D01*
X77005000Y-32070000D02*
X76093700Y-32070000D01*
X77005000Y-33970000D02*
X76093700Y-33970000D01*
X74893800Y-35169900D02*
X76093700Y-33970000D01*
X74893800Y-35996800D02*
X74893800Y-35169900D01*
X74893800Y-36750400D02*
X74893800Y-35996800D01*
X78148400Y-40005000D02*
X74893800Y-36750400D01*
X86630000Y-40005000D02*
X78148400Y-40005000D01*
M02*
