G04 #@! TF.FileFunction,Soldermask,Bot*
%FSLAX46Y46*%
G04 Gerber Fmt 4.6, Leading zero omitted, Abs format (unit mm)*
G04 Created by KiCad (PCBNEW (2015-03-05 BZR 5481)-product) date Monday, 13 July 2015 02:26:57 pm*
%MOMM*%
G01*
G04 APERTURE LIST*
%ADD10C,0.100000*%
%ADD11R,2.032000X1.727200*%
%ADD12O,2.032000X1.727200*%
%ADD13R,1.727200X2.032000*%
%ADD14O,1.727200X2.032000*%
%ADD15O,1.250000X0.950000*%
%ADD16O,1.000000X1.550000*%
%ADD17R,2.032000X2.032000*%
%ADD18O,2.032000X2.032000*%
%ADD19C,4.000000*%
G04 APERTURE END LIST*
D10*
D11*
X52705000Y-29210000D03*
D12*
X52705000Y-31750000D03*
X52705000Y-34290000D03*
X52705000Y-36830000D03*
X52705000Y-39370000D03*
X52705000Y-41910000D03*
X52705000Y-44450000D03*
X52705000Y-46990000D03*
X52705000Y-49530000D03*
X52705000Y-52070000D03*
X52705000Y-54610000D03*
D11*
X22860000Y-54610000D03*
D12*
X22860000Y-52070000D03*
X22860000Y-49530000D03*
X22860000Y-46990000D03*
X22860000Y-44450000D03*
X22860000Y-41910000D03*
X22860000Y-39370000D03*
X22860000Y-36830000D03*
X22860000Y-34290000D03*
X22860000Y-31750000D03*
X22860000Y-29210000D03*
D13*
X46990000Y-54610000D03*
D14*
X44450000Y-54610000D03*
X41910000Y-54610000D03*
X39370000Y-54610000D03*
X36830000Y-54610000D03*
X34290000Y-54610000D03*
X31750000Y-54610000D03*
X29210000Y-54610000D03*
D13*
X52705000Y-24130000D03*
D14*
X55245000Y-24130000D03*
X57785000Y-24130000D03*
D13*
X77470000Y-60960000D03*
D14*
X80010000Y-60960000D03*
X82550000Y-60960000D03*
X85090000Y-60960000D03*
D15*
X78065900Y-26327540D03*
X73065900Y-26327540D03*
D16*
X79065900Y-23627540D03*
X72065900Y-23627540D03*
D17*
X63500000Y-24130000D03*
D18*
X66040000Y-24130000D03*
D13*
X27305000Y-60960000D03*
D14*
X29845000Y-60960000D03*
X32385000Y-60960000D03*
X34925000Y-60960000D03*
X37465000Y-60960000D03*
X40005000Y-60960000D03*
D19*
X20955000Y-23495000D03*
X93345000Y-23495000D03*
X93345000Y-61595000D03*
X20955000Y-61595000D03*
M02*
